<svg xmlns="http://www.w3.org/2000/svg">

    <!-- core-symbol -->
    <symbol id="core" viewBox="0 0 366 426">
        <title>Core</title>
        <desc>Core Symbol</desc>
        <path d="M280.3,311L280.3,311L280.3,311z"/>
        <path d="M292.7,337.2l0-1.1c0-5.8,0-11.6,0-17.5c0-7.3-5.1-12.5-12.3-12.6c-7-0.2-11.9,4.5-12.7,11.8c-0.2,1.6-0.1,3-0.1,4.3l0,0.2
    c0,0.4,0,0.8,0,1.2v11H32.1V91.4h235.5c0,3.9,0,7.6,0,11.4c0.1,8.4,5.2,14,12.7,14c7.4-0.1,12.4-5.8,12.4-14.2c0-9.9,0-19.8,0-29.7
    c0-12.4,0-24.8,0-37.2c0-7-2.5-13.2-7.5-18.5c-6.4-6.9-14.6-10.3-24.4-10.3h-0.1c-14.5,0-29.5,0-42.8,0c-6.7,0-13.4,0-20.1,0h-39.7
    C118.5,7,78.7,7,39,7C19.4,7,6.7,19.8,6.7,39.5v347c0,19.7,12.7,32.4,32.4,32.4c47.3,0,94.6,0,141.9,0h38.7c4,0,8.1,0,12.1,0
    c4,0,8,0,12.1,0c6.6,0,12.5,0,18.2-0.1c16.3-0.2,30.3-12.3,30.6-26.3C292.9,374.1,292.8,355.3,292.7,337.2z M267.6,62.4l0,3
    c0,0.1,0,0.2,0,0.3H31.8v-3.1c0-2.7,0-5.4,0-8.1c0-6.1,0-12.3,0-18.5c0-3,0.5-3.5,3.6-3.9c1.4-0.2,3-0.2,4.3-0.2h64.9
    c50.1,0,101.9,0,152.8-0.1h0.2c7.2,0,9,0.7,9.5,1.1c0.2,0.2,1,1.5,0.8,9.1C267.5,49,267.5,55.8,267.6,62.4z M267.5,391.7
    L267.5,391.7c0,0.7,0,1.4-2.7,1.9c-1.5,0.3-3.3,0.3-5.2,0.3h-0.7c-72.9,0-145.8,0-218.7,0h-0.4c-2,0-4.1,0-5.7-0.3
    c-1.6-0.3-2-0.8-2.1-0.8c0,0,0,0,0,0c0,0,0-0.1,0-0.2c-0.2-9.1-0.1-18-0.1-27.5l0-0.6c0-1.4,0-2.8,0-4.2h235.7c0,1.5,0,3.1,0,4.6
    l0,0.4C267.6,374.4,267.7,382.9,267.5,391.7z"/>
        <path d="M352.1,209.7c-2-3.3-5.9-4.1-11.4-5.3c-5.5-1.2-7.4-3.1-9.4-9.3c-3.1-9.5-1.8-14.3,5.1-19.1c3.4-2.4,4.3-5.1,4.4-7
    c0.2-3-1.2-6-4.1-8.9c-3.3-3.1-6.5-6.4-9.7-9.6c-1.4-1.4-2.8-2.8-4.2-4.2c-5.1-5.1-7.9-7.9-11.9-7.9c0,0-0.1,0-0.1,0
    c-4,0.1-7,3.2-11.8,8.3c-2.9,3.1-4.7,3.5-9.8,2.5c-11.2-2.2-15.2-6-15.7-15.1c-0.1-2.7-1.3-5-3.4-6.4c-2.2-1.6-5.4-2.1-8.5-1.3
    c-5.3,1.4-10.6,2.8-15.8,4.2c-3.6,1-7.2,1.9-10.7,2.9c-6,1.6-8.7,6.1-7.2,12.2c0.3,1.2,0.6,2.3,0.9,3.5c0.7,2.5,1.4,4.9,1.6,7.3
    c0.1,0.8-0.3,2.3-0.9,2.9c-3.3,3.9-6.8,7.3-10.3,10.2c-0.9,0.7-2.6,1.3-3.5,1.1c-2.6-0.3-5.2-1.1-8.5-2c-1.5-0.4-3.2-0.9-5-1.4
    l-2.6-0.7l-1.6,2.2c-0.3,0.4-0.7,0.9-1.2,1.4c-1.4,1.5-3,3.4-3.8,5.9c-1.8,5.5-3.2,11.2-4.6,16.6c-0.5,2-1,4-1.5,6
    c-1.1,4.1-1.9,8,0.2,11.1c2,3.2,6.1,4.1,9.7,4.8c6.6,1.2,9,3.5,11.1,10.8c2.4,8.5,1.3,12.6-4.9,17.2c-3,2.2-4.6,4.9-4.8,7.9
    c-0.2,3.2,1.4,6.4,4.7,9.5c4.9,4.6,9.8,9.4,14.5,14.1l0.3,0.3c4.2,4.1,6.9,6.8,10.7,6.7c3.8-0.1,6.7-3.3,10-7
    c4-4.4,6.7-5.2,13.1-3.6c9.6,2.3,12.9,5.6,13.7,13.8c0.4,4.2,2.4,6.3,4,7.4c1.2,0.8,2.9,1.6,5.4,1.6c1.2,0,2.7-0.2,4.3-0.7
    c5.3-1.5,10.7-3,16-4.4c1.5-0.4,3-0.8,4.6-1.2c5.2-1.4,9.3-2.5,11.2-5.9c1.8-3.2,0.8-6.9-0.9-12.1c-1.9-5.7-1.2-8.2,3.4-13.2
    c6.7-7.2,11.3-8.4,18.8-5.1c3.9,1.7,6.7,1.1,8.5,0.2c1.9-0.9,4.4-3,5.6-7.8c1.6-6.3,3.3-12.8,5-19l0.4-1.6
    C353,216.6,354,213,352.1,209.7z M314.3,173.4c-6.5,5.1-5.1,11.2-3.5,15.3c2.2,5.5,3.8,11.8,5.1,19.7c0.6,3.7,2.2,8.7,9.3,10.3
    c2.6,0.6,5.2,1.3,8,2.1c0.1,0,0.3,0.1,0.4,0.1l-3,11.2c-0.1,0-0.2,0-0.2-0.1c-2.9-0.7-5.6-1.4-8.2-2.2c-6.9-2.2-10.9,1.3-13.7,4.6
    c-4.6,5.5-9.2,10.2-14,14c-3.1,2.5-7.1,6.8-4.9,14.2c0.7,2.5,1.4,4.9,2.1,7.8c0,0.1,0.1,0.3,0.1,0.4l-11,3c0,0,0-0.1,0-0.1
    c-0.7-3.3-1.4-6.5-2.9-9.5c-1.7-3.4-5.2-6.5-8.9-7.7c-3.6-1.2-7.3-2.2-10.9-3.1c-3.7-0.9-7.2-1.8-10.6-3c-1.5-0.5-3.2-1-5-1
    c-2.5,0-5.2,0.9-7.9,3.7c-2,2.2-4.2,4.2-6.5,6.3c-0.1,0.1-0.1,0.1-0.2,0.2l-8.5-8.9c2.1-1.7,4.2-3.4,6.3-5.1
    c6.1-5,3.9-11.3,3.1-13.6c-2.6-7.6-4.3-13.9-5.3-19.8c-0.8-4.6-2.6-10.1-10.7-11.4c-2.1-0.3-4.3-1-6.9-1.8c-0.1,0-0.2-0.1-0.3-0.1
    l2.9-11.2c0,0,0,0,0.1,0c2.6,0.6,5,1.1,7.2,1.9c8,2.9,12.4-1.1,15.4-4.9c3.6-4.5,8-8.9,13.6-13.4c3.5-2.8,7.2-7,4.7-14.3
    c-0.8-2.4-1.4-5-2-7.7c0-0.1,0-0.2-0.1-0.3l11.4-3.1c0,0.1,0.1,0.2,0.1,0.3c0.8,2.7,1.6,5.3,2.1,7.9c1.5,7.1,6.5,8.9,10.7,9.7
    c7.9,1.5,14.1,3.2,19.8,5.3c3.8,1.4,9.3,2.6,14.2-3c1.6-1.9,3.3-3.8,4.9-5.7l9.1,9.2C317.9,170.6,316.1,172,314.3,173.4z"/>
        <path d="M269.8,175.2c-0.1,0-0.2,0-0.3,0c-9.1,0-17.7,3.5-24.1,9.9c-6.6,6.5-10.2,15.3-10.3,24.6c0,9.5,3.5,18.2,9.9,24.7
    c6.4,6.4,15.1,10,24.4,10c0,0,0,0,0.1,0c19.1,0,34.7-15.4,34.8-34.3C304.4,190.9,288.9,175.3,269.8,175.2z M269.3,192.9
    C269.3,192.9,269.4,192.9,269.3,192.9c4.6,0,8.9,1.8,12,4.9c3.1,3.2,4.8,7.5,4.8,12.1c-0.1,9-7.7,16.6-16.6,16.6c0,0,0,0,0,0
    c-4.5,0-8.7-1.8-11.8-4.9c-3.1-3.2-4.8-7.5-4.8-12.2v0c0-4.5,1.7-8.7,4.8-11.7C260.8,194.6,264.9,192.9,269.3,192.9z"/>
    </symbol>
    <!-- /core-symbol -->

    <!-- dvs-symbol -->
    <symbol id="dvs" viewBox="0 0 366 426">
        <title>DVS</title>
        <desc>DVS Symbol</desc>
        <path d="M328,193.6c-3-0.7-6-0.6-8.9-0.6l-0.7,0c-12.6,0-26.2-1-39.4-1.9c-12.4-0.9-25.2-1.8-37.6-2c0-1.1,0-2.2,0-3.2
        c0-5,0-9.6,0-14.2c0.2-10.3-5.4-14.8-10.2-16.7c-6.4-2.6-12.5-0.9-18.2,4.8c-5.9,5.9-11.9,11.9-17.8,17.8
        c-8.6,8.6-17.5,17.5-26.3,26.3c-8.4,8.5-8.5,16.8,0,25.3c8.2,8.3,16.6,16.7,24.8,24.8c6.4,6.4,12.9,12.9,19.3,19.3
        c1.7,1.7,6,6.1,12.4,6.1c1.8,0,3.7-0.3,5.7-1.1c4.8-1.9,10.5-6.3,10.3-16.6c-0.1-4.8-0.1-9.5-0.1-14.6c0-1,0-2,0-2.9h7.7
        c12.4,0,25.7-1,38.5-2c11.7-0.9,23.9-1.9,35.2-2c15.6-0.2,25.8-8.3,26.8-21.3C350.5,205.9,342.7,196.7,328,193.6z"/>
        <path d="M304.8,281c0-3.2-1.3-6.3-3.7-8.7c-2.6-2.6-6-4.1-9.4-4.1h-3.2c-6.7,0-12.1,5.7-12.1,12.7v96.8l0,1.2c0,1.5,0,2.9,0,4.4
        c-0.3,8.2-4.8,8.2-6.8,8.2c-10.2,0.1-20.6,0.1-30.7,0.1c-3.7,0-7.5,0-11.2,0h-177c-6,0-8.9-1.1-8.9-11c0-65.2,0-130.3,0-195.5
        l0-97.7l0-12.1c0-10.7,0-21.5,0-32.2c0-8.9,3.6-10.8,9-10.8c12.5-0.1,212-0.1,220.8,0.4c1.6,0.1,4.4,3.3,4.7,7
        c0.1,1.2,0.1,2.4,0.1,3.8l0,101.7c0,7,5.4,12.7,12.1,12.7h4.3c6.7,0,12.1-5.7,12.1-12.7c0-34,0-68,0-102c0-21.2-13.4-35.5-34-36.4
        C264,6.4,131.4,6.5,74.7,6.6l-2.9,0l-4.3,0c-5.6,0-11.3,0-16.9,0c-22,0-35.2,13.6-35.2,36.3c0,26.6,0,53.1,0,79.7l0,39.8l0,44.6
        c0,58.8,0,117.6,0,176.4c0,17.5,10.1,30.9,26.2,34.9c3.8,0.9,7.5,0.9,11,0.9l1.4,0c20.5,0,41.1,0,61.6,0
        c49.5-0.1,100.6-0.1,150.9,0.3c0.1,0,0.2,0,0.4,0c10.2,0,20-4,27-11c7.4-7.4,11.3-17.5,11.1-29.1C304.7,345.3,304.8,310.7,304.8,281
        z"/>
    </symbol>
    <!-- /dvs-symbol -->

    <!-- lsds-symbol -->
    <symbol id="lsds" viewBox="0 0 366 426">
        <title>LSDS</title>
        <desc>LSDS Symbol</desc>
        <path d="M292.7,337.2l0-1.1c0-5.8,0-11.6,0-17.5c0-7.3-5.1-12.5-12.3-12.6c-7-0.2-11.9,4.5-12.7,11.8c-0.2,1.6-0.1,3-0.1,4.3l0,0.2
            c0,0.4,0,0.8,0,1.2v11H32.1V91.4h235.5c0,3.9,0,7.6,0,11.4c0.1,8.4,5.2,14,12.7,14c7.4-0.1,12.4-5.8,12.4-14.2c0-9.9,0-19.8,0-29.7
            c0-12.4,0-24.8,0-37.2c0-7-2.5-13.2-7.5-18.5c-6.4-6.9-14.6-10.3-24.4-10.3h-0.1c-14.5,0-29.5,0-42.8,0c-6.7,0-13.4,0-20.1,0h-39.7
            C118.5,7,78.7,7,39,7C19.4,7,6.7,19.8,6.7,39.5v347c0,19.7,12.7,32.4,32.4,32.4c47.3,0,94.6,0,141.9,0h38.7c4,0,8.1,0,12.1,0
            c4,0,8,0,12.1,0c6.6,0,12.5,0,18.2-0.1c16.3-0.2,30.3-12.3,30.6-26.3C292.9,374.1,292.8,355.3,292.7,337.2z M267.6,62.4l0,3
            c0,0.1,0,0.2,0,0.3H31.8v-3.1c0-2.7,0-5.4,0-8.1c0-6.1,0-12.3,0-18.5c0-3,0.5-3.5,3.6-3.9c1.4-0.2,3-0.2,4.3-0.2h64.9
            c50.1,0,101.9,0,152.8-0.1h0.2c7.2,0,9,0.7,9.5,1.1c0.2,0.2,1,1.5,0.8,9.1C267.5,49,267.5,55.8,267.6,62.4z M267.5,391.7
            L267.5,391.7c0,0.7,0,1.4-2.7,1.9c-1.5,0.3-3.3,0.3-5.2,0.3h-0.7c-72.9,0-145.8,0-218.7,0h-0.4c-2,0-4.1,0-5.7-0.3
            c-1.6-0.3-2-0.8-2.1-0.8c0,0,0,0,0,0c0,0,0-0.1,0-0.2c-0.2-9.1-0.1-18-0.1-27.5l0-0.6c0-1.4,0-2.8,0-4.2h235.7c0,1.5,0,3.1,0,4.6
            l0,0.4C267.6,374.4,267.7,382.9,267.5,391.7z"/>
        <path d="M343.5,152.3c-24.2,7.8-43.1,1.5-59.6-20l-5.7-7.5l-5.5,7.7c-7.9,11-15.7,17.4-25.2,20.7c-11.3,4-23,2.2-32.9-0.1l-7.7-1.8
            l-0.8,7.9c0,0.3-0.1,0.5-0.1,0.6c-0.1,0.7-0.2,1.7-0.1,2.8c0.6,5.7,1.1,11.4,1.7,17.1c1.4,13.9,2.8,28.3,4.7,42.5
            c2,14.4,5.9,25.4,12.3,34.6c12.5,17.8,29.2,31,49.9,39.1c1.3,0.5,2.9,0.9,4.6,0.9c1.5,0,3.1-0.3,4.6-1c4.9-2.4,10.5-5.1,15.8-8.2
            c23-13.6,37-32.4,41.5-56.1c2.6-13.4,4.8-27,6.7-38.5c1.2-7.5,2.3-15,3.4-22.8c0.5-3.3,1-6.7,1.5-10.1l1.6-11.1L343.5,152.3z
             M325.1,184.6c-0.6,3.5-1.2,6.9-1.8,10.4c-1.9,11.3-3.9,23-6.2,34.4c-2.9,14.6-11.7,26.4-26.7,36c-1,0.6-1.8,1.1-2.6,1.6
            c-2.4,1.3-4.3,2.3-5.8,3.2c-1.4,0.8-3,1.7-3.8,2.1c-0.9-0.4-2.8-1.6-4.5-2.7c-1.2-0.8-2.7-1.6-4.4-2.6c-18-10.8-28.1-23.3-31.7-39.4
            c-2-8.8-3.6-18.2-5.4-30.6c-0.8-5.6-1.3-11.3-1.7-17.3c0-0.1,0-0.3,0-0.4c18.8,0.2,35-5.7,48.3-17.8c13.6,11.8,29.4,17.7,47.2,17.7
            C325.6,181,325.4,182.9,325.1,184.6z"/>
    </symbol>
    <!-- /lsds-symbol -->

    <!-- dps-symbol -->
    <symbol id="dps" viewBox="0 0 355 426">
        <title>DPS</title>
        <desc>DPS Symbol</desc>
        <path d="M291.8,336.1v-17.5c0-7.4-4.9-12.4-12.3-12.6c-6.9-0.1-11.9,4.5-12.7,11.8l0,0.1c-0.1,1.5-0.1,2.8-0.1,4.1v12.5H31.2V91.4
            h235.5l0,11.5c0.1,8.4,5.2,14,12.6,14c7.4,0,12.3-5.5,12.5-14.2V35.8c0-7-2.5-13.2-7.4-18.5c-6.4-6.9-14.7-10.4-24.5-10.4H38
            C18.4,6.9,5.7,19.7,5.7,39.5v347c0,19.7,12.7,32.4,32.4,32.4h204.8c6,0,12.1,0,18.2-0.1c16.3-0.2,30.3-12.3,30.5-26.3
            C291.9,376.4,291.9,358.5,291.8,336.1z M266.7,62.9c0,0.9,0,1.8,0,2.8H30.8l0-29.7c0.1-3,0.6-3.5,3.6-3.9c1.3-0.2,2.9-0.2,4.2-0.2
            h64.9c50.1,0,101.9,0,152.8-0.1h0.2c7.2,0,9,0.7,9.5,1.1c0.2,0.3,1,2,0.7,9.2C266.5,49.3,266.6,56.5,266.7,62.9z M266.6,391.7
            c0,0.7-0.1,1.4-2.8,2c-1.4,0.3-3.2,0.3-5.1,0.3H38.9c-2,0-4.1,0-5.6-0.4l-0.2,0c-1.5-0.3-1.9-0.7-2-0.7c0,0,0,0,0,0c0,0,0-0.1,0-0.2
            l0-0.1c-0.1-6.8-0.1-13.5-0.1-20.5c0-2.4,0-4.8,0-7.2v-4.6h235.6v4.7C266.7,374.1,266.7,382.8,266.6,391.7z"/>
        <path d="M345.2,275.8c-0.3-23.9-18.6-42.6-42.6-43.5c-7.3-0.3-10.7-3.8-10.7-10.9c0-10.6,0.1-22.8,0.1-32.6c0-5.7,0.1-10.7,0.1-14.3
            h17.6c2.4,0,4.5-1.4,5.4-3.6c0.9-2.2,0.4-4.7-1.2-6.3l-31.5-35.3l-0.2-0.2c-1.1-1.1-2.6-1.7-4.2-1.7c-1.6,0-3,0.6-4.2,1.7
            l-32.4,35.7c-1.6,1.8-2.1,4.3-1.1,6.5c0.9,2.2,3,3.5,5.4,3.5h18.6c0.1,13.2,0.1,46.9,0,48.9c-0.3,4.8-4.1,8.3-9,8.6
            c-27.3,1.6-44.2,19.5-44.2,46.9v37.8c0,1.7,0.7,3.3,1.9,4.4v1.7h17.8c3.3,0,5.9-2.7,5.9-5.9v-38.6c0-7.9,3.5-16.6,11-16.8
            c9.2-0.3,22.3-3.5,30.3-9.2c8.1,6,17.2,9.1,27.9,9.4c5,0.1,13.7,9.9,13.7,15.3v39.9c0,3.3,2.7,5.9,5.9,5.9h13.8
            c3.3,0,5.9-2.7,5.9-5.9c0-4.7,0-8.6,0-12.1C345.3,295.3,345.4,288.4,345.2,275.8z"/>
    </symbol>
    <!-- /dps-symbol -->

    <!-- drs-symbol -->
    <symbol id="drs" viewBox="0 0 324 426">
        <title>DRS</title>
        <desc>DRS Symbol</desc>
        <rect x="116.2" y="186.1" width="141.9" height="27.4"/>
        <rect x="116.2" y="245.5" width="142" height="27.3"/>
        <rect x="116.1" y="304.9" width="142" height="27.2"/>
        <rect x="116.3" y="126.7" width="142" height="25.3"/>
        <path d="M84.4,157.2c-2.9,0-5.9,0.1-8.8,0c-4.6-0.2-7.8-3.4-8-8c-0.2-5.9-0.2-11.8,0-17.6c0.2-4.7,3.3-7.7,8-7.9
            c5.7-0.2,11.4-0.2,17.2,0c4.8,0.1,8.2,3.3,8.3,8.1c0.2,5.9,0.2,11.8,0,17.6c-0.2,5.1-2.8,7.6-7.9,7.7
            C90.3,157.3,87.4,157.2,84.4,157.2z"/>
        <path d="M84.5,216.6c-2.8,0-5.6,0.1-8.3,0c-5.2-0.2-8.4-3.3-8.5-8.4c-0.1-5.6-0.2-11.1,0-16.7c0.1-5.2,3.3-8.3,8.4-8.4
            c5.6-0.1,11.1-0.1,16.7,0c5,0.1,8.3,3.4,8.4,8.6c0.1,5.6,0.1,11.1,0,16.7c-0.1,5.7-2.7,8.1-8.3,8.3
            C90.1,216.7,87.3,216.6,84.5,216.6z"/>
        <path d="M84.6,276c-2.8,0-5.6,0.1-8.3,0c-5.1-0.2-8.5-3.3-8.6-8.3c-0.2-5.7-0.1-11.4,0-17.1c0.1-4.9,3.3-8,8.2-8.1
            c5.5-0.1,11.1-0.1,16.6,0c5.3,0.1,8.6,3.4,8.7,8.7c0.1,5.5,0.1,11.1,0,16.6c-0.1,5.5-2.8,8.1-8.3,8.3C90.1,276,87.3,276,84.6,276z"
            />
        <path d="M101.2,319c0,3.1,0.2,6.2-0.1,9.3c-0.3,4.3-2.8,6.9-7.2,7c-6.2,0.1-12.4,0.2-18.5,0c-4.3-0.1-7.5-3.4-7.7-7.8
            c-0.2-6-0.2-12.1,0-18.1c0.2-4.4,3.4-7.5,7.8-7.6c5.9-0.2,11.8-0.2,17.6,0c4.6,0.1,7.7,3.4,8.1,8c0.1,1.5,0,3.1,0,4.6
            C101.2,316,101.2,317.5,101.2,319C101.2,319,101.2,319,101.2,319z"/>
        <path d="M309.4,277.8c0-13.9,0.1-27.8,0.1-41.7l0-26.1c0-44.5,0-88.9,0-133.4c0-20.2-13.6-34.3-33.8-35c-5.6-0.2-11.3-0.2-16.8-0.1
            c-2.8,0-5.6,0-8.4,0c-0.1,0-0.2,0-0.4,0c0-3.4,0-6.7,0-10c-0.1-10.6-5-15.6-15.5-15.6c-1.4,0-6-0.7-11.2-1.5
            C209,12,185.1,8.3,160.9,8.3c-24,0-48.1,3.7-62.6,5.8C92.6,15,87.7,15.8,86,15.8c-8.6,0-14.1,5.4-14.2,14.1c-0.1,3.7,0,7.3,0,11.2
            c0,0.1,0,0.3,0,0.4l-9.3,0c-4.4,0-8.8,0-13.1,0c-21.6,0-35,13.4-35,35c0,23.9,0,47.8,0,71.7l0,35.9l0,39.4c0,53.2,0,106.4,0,159.5
            c0,16.8,10.4,30.4,25.9,33.8c3.8,0.8,7.6,0.8,11.2,0.8l1.4,0c21.3,0,42.6,0,63.9,0c50.6-0.1,103-0.1,154.5,0.3c0.1,0,0.2,0,0.3,0
            c10.3,0,20.3-4.1,27.3-11.2c7.1-7.1,10.9-16.7,10.8-27.2C309.3,345.5,309.3,311.1,309.4,277.8z M40.2,105.5c0-9.7,0-19.3,0-29
            c0-6.6,2.6-9.2,9.4-9.2c3.5,0,7.1,0,10.6,0c2.6,0,5.3,0,8,0l3.5,0c0,0.2,0,0.3,0,0.5c0,3.8,0,7.3,0,10.9c0.1,9.5,4.8,14.2,14.2,14.2
            c58.6,0,106.2,0,149.8,0c9.8,0,16.1-6.2,16.4-16.1c0.1-2.8,0.1-5.5,0.2-8.3c0-0.3,0-0.6,0-0.9c1.3,0,2.7,0,4,0
            c6.6-0.1,13.5-0.1,20.2,0.2c2.1,0.1,4.7,3.1,5,5.9c0.1,1,0.1,2,0.1,3.2l0,0.9v300.1l0,1.5c0,1.2,0,2.3,0,3.5v0
            c-0.2,4.8-2.4,6.9-7.1,7c-10.5,0.1-21.1,0.1-31.5,0.1c-3.9,0-7.8,0-11.6,0H49.5c-7.5,0-9.3-1.8-9.3-9.4c0-58.6,0-117.3,0-175.9l0-88
            L40.2,105.5z M148.5,42.2c0-7.5,6.1-13.6,13.5-13.6c7.5,0,13.5,6.1,13.5,13.6c0,7.5-6.1,13.5-13.5,13.5
            C154.5,55.8,148.5,49.7,148.5,42.2z"/>
    </symbol>
    <!-- /drs-symbol -->

    <!-- pencil-symbol -->
    <symbol id="pencil" viewBox="0 0 14 16">
        <path fill-rule="evenodd" d="M0 12v3h3l8-8-3-3-8 8zm3 2H1v-2h1v1h1v1zm10.3-9.3L12 6 9 3l1.3-1.3a.996.996 0 0 1 1.41 0l1.59 1.59c.39.39.39 1.02 0 1.41z"></path>
    </symbol>
    <!-- /pencil-symbol -->

</svg>